<?xml version="1.0" standalone="no"?>
<!DOCTYPE svg PUBLIC "-//W3C//DTD SVG 20010904//EN"
 "http://www.w3.org/TR/2001/REC-SVG-20010904/DTD/svg10.dtd">
<svg version="1.0" xmlns="http://www.w3.org/2000/svg"
 width="400.000000pt" height="400.000000pt" viewBox="0 0 400.000000 400.000000"
 preserveAspectRatio="xMidYMid meet">

<g transform="translate(0.000000,400.000000) scale(0.100000,-0.100000)"
fill="#000000" stroke="none">
<path d="M1910 3606 c0 -28 -5 -30 -63 -26 -38 2 -38 2 -33 -32 3 -18 13 -80
21 -138 8 -58 19 -119 24 -137 5 -17 12 -67 16 -110 4 -43 13 -105 20 -138 12
-58 13 -60 41 -55 46 7 107 6 131 -3 30 -11 40 16 58 151 8 56 16 106 19 110
2 4 12 55 21 112 9 58 20 124 26 147 18 80 15 85 -38 81 -48 -3 -48 -3 -51 30
-3 33 -4 34 -40 26 -47 -9 -58 -9 -109 0 -42 7 -43 7 -43 -18z"/>
<path d="M277 894 c-13 -13 -7 -91 7 -104 10 -7 50 -11 118 -10 57 1 109 1
115 1 10 -1 13 -54 15 -213 l3 -213 30 -3 c25 -2 39 7 88 56 l57 58 -2 214 -3
215 -211 3 c-115 1 -213 -1 -217 -4z"/>
<path d="M2023 871 c-59 -21 -77 -33 -98 -64 -29 -45 -34 -111 -9 -125 13 -7
16 -29 18 -116 l1 -107 57 -55 56 -54 90 0 c96 0 102 3 102 55 0 47 -9 55 -66
55 l-54 0 -2 217 c-2 134 -7 217 -13 219 -5 1 -43 -10 -82 -25z"/>
<path d="M2560 894 c0 -4 21 -41 46 -83 25 -42 49 -83 54 -91 103 -174 136
-230 174 -298 38 -68 45 -67 85 8 14 25 27 47 31 50 3 3 18 31 33 62 26 52 27
64 25 164 -3 110 -14 137 -35 87 -28 -66 -67 -122 -84 -123 -8 0 -89 127 -89
140 0 5 -4 10 -10 10 -5 0 -10 6 -10 14 0 7 -9 25 -21 40 -19 25 -25 26 -110
26 -49 0 -89 -3 -89 -6z"/>
<path d="M3042 628 l3 -273 88 -3 87 -3 0 276 0 275 -90 0 -90 0 2 -272z"/>
<path d="M2546 823 c-9 -9 -7 -446 3 -461 5 -9 30 -12 87 -10 l79 3 3 97 3 96
-84 141 c-46 77 -87 138 -91 134z"/>
<path d="M807 784 c-4 -4 -7 -78 -7 -165 l0 -158 56 -55 c52 -52 58 -56 102
-56 62 1 105 34 100 76 -3 26 -7 29 -40 32 l-38 3 -2 162 -3 162 -80 3 c-45 1
-84 0 -88 -4z"/>
<path d="M1105 778 c-3 -8 -4 -106 -3 -218 l3 -205 85 0 85 0 0 215 0 215 -83
3 c-61 2 -84 -1 -87 -10z"/>
<path d="M1420 741 c-42 -41 -50 -55 -50 -87 0 -31 8 -45 49 -85 l48 -49 101
0 101 0 3 -82 3 -83 33 -3 c29 -3 41 4 88 51 75 75 74 115 -4 195 -25 25 -34
27 -137 32 l-110 5 -5 75 -5 75 -33 3 c-28 3 -40 -4 -82 -47z"/>
<path d="M1580 755 c0 -34 1 -35 41 -35 32 0 42 -4 46 -20 5 -18 14 -20 84
-20 78 0 79 0 79 26 0 16 -12 37 -31 55 -30 28 -35 29 -125 29 l-94 0 0 -35z"/>
<path d="M2157 784 c-13 -13 -7 -81 7 -93 8 -7 27 -11 43 -9 27 3 28 6 28 53
l0 50 -35 3 c-20 2 -39 0 -43 -4z"/>
<path d="M3375 739 l-55 -52 0 -117 0 -117 57 -52 c46 -43 62 -52 87 -49 l31
3 0 215 0 215 -32 3 c-28 3 -41 -5 -88 -49z"/>
<path d="M3537 783 c-9 -8 -9 -66 -1 -87 4 -11 19 -16 51 -16 l44 0 -3 -37
c-3 -37 -4 -38 -48 -43 -42 -5 -45 -7 -45 -35 l0 -30 130 0 130 0 3 71 3 71
-56 56 -55 57 -74 0 c-40 0 -76 -3 -79 -7z"/>
<path d="M207 574 c-4 -4 -7 -30 -7 -57 0 -48 3 -53 59 -109 l59 -59 83 3 84
3 0 50 0 50 -45 5 -45 5 -5 55 -5 55 -85 3 c-47 1 -89 0 -93 -4z"/>
<path d="M1377 463 c-12 -11 -8 -20 34 -67 l41 -46 89 0 89 0 0 34 c0 32 -3
35 -32 38 -23 2 -36 10 -43 26 -9 20 -16 22 -91 22 -44 0 -84 -3 -87 -7z"/>
<path d="M3542 438 c-13 -13 -16 -47 -6 -72 9 -23 164 -23 200 0 31 21 46 48
38 68 -5 13 -25 16 -113 16 -70 0 -111 -4 -119 -12z"/>
</g>
</svg>
